<svg width="382" height="368" xmlns="http://www.w3.org/2000/svg" xmlns:svg="http://www.w3.org/2000/svg">

 <g class="layer">
  <title>Layer 1</title>
  <rect fill="#C75E0B" height="98.49" id="svg_1" width="40.788" x="91.18" y="247.18"/>
  <polygon fill="#0CC27C" id="svg_2" points="221.34201049804688,292.052001953125 167.50999450683594,211.57699584960938 201.25698852539062,211.57699584960938 148.17999267578125,132.23199462890625 182.6820068359375,132.23199462890625 111.57600402832031,25.933998107910156 40.46900177001953,132.23199462890625 74.97099304199219,132.23199462890625 21.894996643066406,211.57699584960938 55.64099884033203,211.57699584960938 1.8089981079101562,292.052001953125 "/>
  <rect fill="#C75E0B" height="98.49" id="svg_3" width="40.788" x="252.03" y="247.18"/>
  <polygon fill="#0C967C" id="svg_4" points="382.1910095214844,292.052001953125 328.3590087890625,211.57699584960938 362.1059875488281,211.57699584960938 309.02899169921875,132.23199462890625 343.531005859375,132.23199462890625 272.42498779296875,25.933998107910156 201.3179931640625,132.23199462890625 235.82000732421875,132.23199462890625 182.74400329589844,211.57699584960938 216.489990234375,211.57699584960938 162.6580047607422,292.052001953125 "/>
  <rect fill="#D66D1C" height="112.67" id="svg_5" width="47.687" x="168.16" y="255"/>
  <rect fill="#C75E0B" height="112.67" id="svg_6" width="23.891" x="191.95" y="255"/>
  <polygon fill="#39B54A" id="svg_7" points="320.3330078125,306.3330078125 257.39599609375,214.27301025390625 296.8500061035156,214.27398681640625 234.79598999023438,123.50599670410156 275.1340026855469,123.50599670410156 192,1.904998779296875 108.86599731445312,123.50599670410156 149.20399475097656,123.50599670410156 87.14999389648438,214.27301025390625 126.60499572753906,214.27301025390625 63.66699981689453,306.3330078125 "/>
  <polygon fill="#83E276" id="svg_8" points="108.86599731445312,123.50599670410156 149.20399475097656,123.50599670410156 87.14999389648438,214.27301025390625 126.60499572753906,214.27301025390625 63.66699981689453,306.3330078125 191.95199584960938,306.3330078125 192,1.904998779296875 "/>
  <polygon fill="#0CC27C" id="svg_9" points="257.39599609375,214.27301025390625 296.8500061035156,214.27398681640625 234.79598999023438,123.50599670410156 275.1340026855469,123.50599670410156 192,1.904998779296875 192,1.904998779296875 191.95199584960938,306.3330078125 320.3330078125,306.3330078125 "/>
  <g id="svg_10"/>
  <g id="svg_11"/>
  <g id="svg_12"/>
  <g id="svg_13"/>
  <g id="svg_14"/>
  <g id="svg_15"/>
  <g id="svg_16"/>
  <g id="svg_17"/>
  <g id="svg_18"/>
  <g id="svg_19"/>
  <g id="svg_20"/>
  <g id="svg_21"/>
  <g id="svg_22"/>
  <g id="svg_23"/>
  <g id="svg_24"/>
 </g>
</svg>
